<?xml version="1.0" standalone="no"?>
<!DOCTYPE svg PUBLIC "-//W3C//DTD SVG 20010904//EN"
 "http://www.w3.org/TR/2001/REC-SVG-20010904/DTD/svg10.dtd">
<svg version="1.0" xmlns="http://www.w3.org/2000/svg"
 width="512.000000pt" height="512.000000pt" viewBox="0 0 512.000000 512.000000"
 preserveAspectRatio="xMidYMid meet">

<g transform="translate(0.000000,512.000000) scale(0.100000,-0.100000)"
fill="#000000" stroke="none">
<path d="M485 4311 c-90 -22 -172 -90 -215 -176 l-25 -50 -3 -1283 -2 -1283
29 -30 c37 -37 65 -37 102 0 l29 29 0 961 0 961 1790 0 1791 0 24 25 c33 32
33 78 0 110 l-24 25 -1791 0 -1791 0 3 229 c3 252 4 255 72 305 l27 21 2059 0
2059 0 27 -21 c68 -50 69 -53 72 -305 l3 -229 -196 0 -197 0 -29 -29 c-16 -16
-29 -39 -29 -51 0 -12 13 -35 29 -51 l29 -29 196 0 196 0 0 -1175 c0 -1238 1
-1217 -43 -1254 -15 -12 -14 -16 7 -45 13 -17 30 -51 38 -74 l14 -44 43 42
c24 23 55 67 69 98 l27 57 0 1520 0 1520 -34 63 c-37 69 -79 109 -151 144
l-45 23 -2065 2 c-1136 0 -2078 -2 -2095 -6z"/>
<path d="M719 3951 c-55 -56 -26 -159 50 -176 69 -15 140 52 127 120 -16 83
-117 115 -177 56z"/>
<path d="M1134 3962 c-65 -52 -53 -147 23 -178 46 -20 86 -10 118 28 58 69 13
168 -77 168 -26 0 -52 -7 -64 -18z"/>
<path d="M1529 3951 c-51 -52 -36 -131 32 -167 83 -42 175 48 139 137 -17 41
-47 59 -98 59 -35 0 -49 -6 -73 -29z"/>
<path d="M985 2605 c-14 -13 -25 -34 -25 -47 0 -13 48 -171 106 -353 116 -363
122 -375 193 -375 61 0 79 27 150 229 35 100 65 180 66 179 2 -2 33 -86 69
-188 71 -200 84 -220 145 -220 49 0 76 21 95 72 41 113 206 638 206 657 0 32
-43 71 -78 71 -55 0 -68 -22 -142 -255 -39 -121 -73 -227 -76 -235 -3 -8 -35
66 -70 165 -71 200 -89 225 -153 225 -27 0 -44 -7 -60 -24 -12 -13 -50 -102
-85 -201 -35 -98 -65 -174 -68 -169 -3 5 -31 90 -63 189 -82 257 -91 280 -121
293 -38 18 -62 14 -89 -13z"/>
<path d="M2074 2607 c-18 -16 -27 -34 -27 -53 0 -50 211 -682 235 -704 30 -27
94 -27 124 1 13 12 46 90 85 200 35 98 66 179 69 179 3 0 34 -81 69 -179 39
-110 72 -188 85 -200 30 -28 94 -28 124 -1 23 22 233 649 234 703 1 36 -40 77
-77 77 -52 0 -70 -34 -146 -273 -44 -137 -76 -222 -81 -215 -4 7 -33 87 -65
178 -65 186 -81 210 -143 210 -62 0 -79 -24 -144 -210 -31 -91 -60 -171 -65
-178 -4 -7 -37 81 -80 215 -76 239 -94 273 -146 273 -13 0 -36 -11 -51 -23z"/>
<path d="M3155 2605 c-14 -13 -25 -34 -25 -46 0 -19 52 -185 192 -618 27 -83
54 -111 108 -111 29 0 47 6 63 23 13 13 48 98 86 205 35 100 65 181 67 179 2
-1 33 -86 69 -187 41 -117 73 -191 86 -202 12 -10 38 -18 60 -18 71 0 77 12
194 378 97 304 106 336 95 363 -14 33 -37 49 -72 49 -52 0 -65 -22 -138 -248
-39 -119 -73 -224 -76 -232 -3 -8 -35 66 -70 164 -35 99 -74 190 -86 203 -15
16 -33 23 -59 23 -64 0 -82 -25 -153 -225 -35 -99 -67 -173 -70 -165 -3 8 -37
114 -76 235 -75 232 -87 254 -143 255 -17 0 -38 -10 -52 -25z"/>
<path d="M3535 1666 c-41 -18 -83 -69 -90 -110 -10 -50 151 -1192 174 -1236
21 -41 89 -80 139 -80 19 0 54 11 76 24 37 21 54 47 146 215 l105 191 223 0
c248 0 273 5 314 63 29 40 35 114 13 160 -13 27 -124 119 -486 401 -258 202
-480 371 -495 376 -35 14 -83 12 -119 -4z m513 -493 l436 -338 -231 -5 c-290
-6 -252 17 -395 -247 -51 -95 -95 -173 -98 -173 -3 0 -38 240 -79 533 -40 292
-75 540 -78 550 -2 9 -1 17 2 17 4 0 203 -152 443 -337z"/>
<path d="M263 1194 c-24 -24 -25 -30 -20 -94 10 -119 65 -205 169 -261 l63
-34 1493 -3 c1423 -2 1493 -1 1488 15 -2 10 -8 46 -11 81 l-7 62 -1454 0
c-1221 0 -1460 2 -1488 14 -52 22 -87 75 -95 147 -6 47 -13 67 -30 81 -33 26
-77 23 -108 -8z"/>
</g>
</svg>
